<?xml version="1.0" standalone="no"?>
<!DOCTYPE svg PUBLIC "-//W3C//DTD SVG 20010904//EN"
 "http://www.w3.org/TR/2001/REC-SVG-20010904/DTD/svg10.dtd">
<svg version="1.0" xmlns="http://www.w3.org/2000/svg"
 width="728.000000pt" height="447.000000pt" viewBox="0 0 728.000000 447.000000"
 preserveAspectRatio="xMidYMid meet">

<g transform="translate(0.000000,447.000000) scale(0.100000,-0.100000)"
fill="#000000" stroke="none">
<path d="M3236 4299 c-37 -10 -46 -25 -45 -69 0 -28 2 -31 9 -15 7 18 8 17 15
-10 14 -59 18 -70 29 -84 17 -22 57 -178 65 -256 4 -38 9 -63 10 -55 4 25 32
-109 42 -205 6 -49 13 -141 15 -203 5 -96 8 -113 20 -108 9 3 33 6 55 6 28 0
39 4 39 15 0 8 -4 15 -8 15 -4 0 -8 8 -9 18 -7 103 -22 166 -63 262 -24 59
-31 87 -29 132 1 31 -2 63 -7 70 -19 25 -43 113 -48 168 -2 30 -9 68 -15 83
-15 38 -15 98 0 77 8 -12 9 -10 4 9 -4 13 -8 37 -9 54 -1 17 -8 33 -14 35 -7
2 -12 8 -12 13 0 5 10 3 23 -6 25 -16 37 -12 37 15 0 34 -53 54 -104 39z"/>
<path d="M4694 4201 c2 -3 -6 -46 -19 -94 -22 -86 -48 -132 -70 -123 -7 2 -17
-19 -24 -55 -10 -42 -24 -71 -51 -102 -20 -23 -40 -54 -43 -68 -4 -15 -22 -45
-39 -67 -18 -22 -42 -55 -53 -73 -11 -18 -30 -49 -43 -69 -12 -19 -27 -46 -33
-60 -6 -14 -20 -38 -33 -55 -12 -16 -28 -44 -35 -61 -7 -17 -27 -47 -44 -66
-63 -69 -68 -77 -58 -97 6 -10 7 -21 4 -25 -3 -3 1 -6 10 -6 9 0 32 -14 52
-31 l35 -31 0 34 c0 44 17 95 45 133 13 17 30 55 40 85 20 62 77 175 105 205
10 11 34 52 53 90 100 201 137 267 165 297 18 17 32 40 32 49 0 10 4 20 9 23
19 12 82 131 79 150 -2 17 -11 21 -45 22 -24 1 -41 -1 -39 -5z"/>
<path d="M4128 3889 c-20 -11 -24 -35 -7 -41 5 -2 11 -10 13 -18 1 -8 6 -25
10 -38 5 -14 3 -29 -4 -37 -7 -8 -8 -15 -3 -15 6 0 18 18 28 40 10 23 25 44
32 49 8 4 15 20 16 37 2 27 -1 29 -33 31 -19 2 -43 -2 -52 -8z m69 -15 c-3 -3
-12 -4 -19 -1 -8 3 -5 6 6 6 11 1 17 -2 13 -5z m-6 -29 c-1 -15 -24 -12 -29 3
-3 9 2 13 12 10 10 -1 17 -7 17 -13z"/>
<path d="M4788 3823 c7 -3 16 -2 19 1 4 3 -2 6 -13 5 -11 0 -14 -3 -6 -6z"/>
<path d="M4812 3813 c-17 -3 -21 -9 -17 -23 6 -19 -31 -66 -118 -148 -25 -24
-37 -43 -34 -54 3 -10 1 -16 -3 -13 -4 3 -13 -7 -18 -23 -6 -15 -24 -43 -41
-62 -17 -19 -31 -39 -31 -43 0 -5 -4 -6 -9 -3 -5 3 -11 -8 -15 -24 -4 -21 -11
-30 -26 -30 -17 0 -24 -10 -22 -31 1 -3 -9 -12 -22 -19 -13 -7 -30 -23 -37
-37 -7 -14 -25 -35 -40 -47 -15 -13 -42 -40 -60 -60 -26 -31 -29 -37 -13 -34
16 2 19 -2 17 -27 -2 -30 -2 -30 16 -9 9 12 26 24 37 28 19 6 64 75 64 99 0 7
13 30 28 52 26 37 48 64 110 133 12 14 22 28 22 33 0 18 109 149 187 226 83
81 97 106 67 117 -9 3 -16 5 -17 5 -1 -1 -12 -4 -25 -6z"/>
<path d="M4766 3795 c-3 -8 -1 -15 4 -15 6 0 10 7 10 15 0 8 -2 15 -4 15 -2 0
-6 -7 -10 -15z"/>
<path d="M2619 3793 c-10 -2 -19 -13 -22 -24 -3 -11 -9 -18 -14 -17 -10 4 -13
-5 -13 -32 0 -12 16 -30 43 -46 23 -15 70 -53 105 -85 34 -33 67 -59 73 -59
21 0 119 -94 119 -114 0 -12 15 -33 34 -48 19 -15 40 -44 46 -64 7 -21 39 -72
70 -113 81 -107 121 -191 90 -191 -5 0 -10 5 -10 12 0 6 -7 4 -18 -5 -10 -10
-26 -17 -35 -17 -9 0 -17 -7 -17 -15 0 -12 5 -12 40 0 50 18 54 5 30 -96 -14
-62 -25 -79 -50 -79 -21 0 -50 -31 -50 -53 0 -16 -60 -70 -69 -61 -2 2 6 15
18 28 12 13 27 40 32 61 7 24 14 34 18 26 6 -9 11 -8 21 4 7 8 19 15 26 15 14
0 34 38 34 66 0 20 -18 17 -24 -4 -8 -26 -50 -46 -94 -47 -30 0 -36 -4 -34
-18 2 -9 -4 -27 -13 -39 -17 -26 -19 -38 -5 -38 6 0 10 6 10 14 0 8 7 16 15
20 28 10 16 -38 -20 -79 -37 -42 -42 -55 -24 -55 6 0 9 -9 6 -20 -3 -11 -1
-23 5 -26 6 -4 7 -21 3 -42 -6 -32 -5 -34 9 -23 9 8 16 19 16 27 0 14 18 29
26 21 3 -3 0 -14 -7 -24 -14 -23 -4 -133 12 -133 6 0 6 -7 1 -17 -5 -10 -7
-23 -5 -30 2 -6 -1 -14 -6 -18 -6 -3 -11 -24 -11 -46 0 -21 -4 -39 -10 -39 -5
0 -10 5 -10 10 0 7 -6 7 -19 0 -16 -8 -19 -19 -16 -64 2 -30 6 -59 9 -65 3 -5
-1 -17 -10 -26 -10 -9 -14 -24 -11 -37 4 -14 -1 -27 -12 -37 -10 -9 -20 -23
-24 -31 -3 -8 -6 0 -6 18 -1 17 2 32 7 32 4 0 8 14 9 31 1 17 7 36 12 43 5 6
9 39 8 73 0 56 2 65 26 84 21 16 26 26 21 45 -3 13 -2 30 4 37 28 36 23 130
-7 120 -28 -10 -51 -35 -51 -57 -1 -12 -14 -32 -29 -44 l-29 -24 5 -111 c5
-105 4 -110 -13 -97 -16 14 -17 12 -9 -35 4 -27 8 -68 10 -90 4 -66 16 -170
21 -174 2 -3 9 0 15 6 7 7 6 26 -5 64 -23 76 -19 82 10 17 l26 -57 26 30 c14
17 38 43 54 59 15 16 26 34 25 42 -2 7 -2 10 0 5 7 -12 23 3 23 22 0 25 41 42
63 26 20 -14 22 -35 4 -35 -12 0 -77 -54 -77 -64 0 -3 7 -3 15 0 23 9 18 -10
-7 -26 -37 -25 -78 -67 -72 -73 3 -3 -4 -8 -15 -12 -12 -3 -21 -11 -21 -16 0
-5 -3 -8 -7 -8 -23 4 -41 -3 -39 -13 0 -7 -2 -14 -7 -15 -4 -2 -17 -12 -30
-23 -34 -30 -127 -108 -208 -175 -66 -54 -92 -78 -134 -126 -8 -8 -37 -27 -64
-41 -37 -19 -47 -28 -38 -37 6 -6 17 -11 24 -11 16 0 17 -26 2 -35 -6 -4 -20
2 -32 13 -12 11 -28 17 -34 15 -7 -3 -13 0 -13 6 0 6 -9 11 -20 11 -13 0 -20
-7 -20 -20 0 -11 7 -20 15 -20 8 0 15 -4 15 -10 0 -14 -23 -13 -38 2 -9 9 -12
9 -12 0 0 -15 96 -62 124 -62 16 1 12 6 -16 20 -32 17 -58 40 -45 40 9 0 73
-34 89 -47 26 -23 42 -6 23 24 -9 14 -14 27 -11 31 3 3 6 0 6 -6 0 -7 7 -12
15 -12 24 0 18 17 -15 40 -37 26 -30 42 16 38 27 -2 40 4 69 32 19 19 33 40
31 47 -3 7 0 15 6 19 7 4 8 3 4 -4 -4 -7 -3 -12 3 -12 6 0 16 11 23 23 20 36
208 193 276 230 31 17 33 17 38 0 13 -39 26 -60 40 -60 8 0 12 7 10 16 -2 9
-7 34 -10 56 -5 29 -4 36 3 25 9 -13 11 -13 11 3 0 9 5 17 10 17 15 0 12 -58
-2 -63 -10 -3 -7 -15 9 -45 15 -29 17 -39 7 -35 -10 4 -14 -3 -14 -22 0 -25 1
-25 17 -10 15 16 17 15 29 -6 7 -13 10 -28 7 -33 -4 -5 -1 -6 5 -2 13 8 68
-20 93 -46 32 -35 33 -19 2 50 -7 17 -20 32 -28 32 -14 0 -45 53 -45 78 0 9 9
3 23 -14 12 -16 30 -37 40 -47 10 -10 22 -29 27 -43 6 -16 20 -27 40 -31 17
-3 28 -8 26 -11 -3 -2 -1 -13 4 -23 7 -13 6 -22 -6 -34 -19 -19 -48 -12 -78
19 -24 25 -76 59 -76 50 0 -3 9 -17 20 -31 11 -14 20 -36 20 -49 0 -35 -33
-117 -64 -157 -15 -19 -25 -39 -24 -43 5 -17 -26 -79 -70 -143 -25 -36 -46
-75 -47 -88 0 -12 -8 -28 -18 -35 -9 -7 -39 -59 -66 -115 -28 -55 -66 -116
-85 -135 -19 -19 -40 -45 -45 -59 -6 -13 -15 -31 -20 -39 -5 -8 -14 -27 -21
-42 -7 -15 -26 -42 -42 -60 -27 -31 -29 -32 -23 -8 l6 25 -18 -21 c-10 -12
-24 -23 -30 -25 -17 -5 33 -68 63 -79 47 -18 70 13 39 54 -13 17 -12 21 10 38
14 11 25 28 25 38 0 11 6 23 13 27 22 14 57 70 57 93 0 20 22 57 57 100 7 8
27 38 45 67 18 29 60 92 93 140 32 48 75 117 94 153 66 125 145 208 215 226
15 3 30 13 33 20 3 10 19 13 49 12 29 -2 43 -7 40 -15 -3 -7 1 -10 10 -6 10 4
19 -5 27 -26 6 -17 14 -31 18 -31 10 0 28 -50 32 -85 2 -17 6 -35 9 -40 4 -9
-7 -146 -17 -200 -2 -11 -4 -65 -5 -120 -1 -67 -5 -92 -10 -75 -5 17 -8 -4 -9
-65 -1 -94 -40 -276 -61 -283 -6 -2 -10 -43 -10 -103 0 -72 -3 -99 -12 -99 -7
0 -27 -9 -45 -20 -30 -18 -31 -21 -22 -49 9 -25 17 -31 55 -37 24 -3 55 -3 69
0 32 8 44 50 21 75 -20 22 -21 32 -2 25 13 -5 13 1 1 45 -7 27 -11 52 -8 55 3
3 7 35 9 73 2 37 8 82 13 98 6 17 13 68 16 115 5 50 15 100 26 121 10 20 23
67 29 104 6 37 15 75 19 84 5 9 14 48 20 88 13 88 60 207 96 245 27 29 34 31
72 28 17 -1 21 3 17 14 -5 12 0 16 17 16 19 0 21 -2 9 -10 -11 -7 1 -10 40
-10 36 0 50 3 41 9 -8 5 -19 7 -25 5 -6 -2 -17 5 -24 16 -11 18 -10 20 17 20
38 0 43 10 25 44 -7 16 -14 41 -14 57 0 17 -7 41 -16 54 -9 14 -13 25 -10 25
4 0 -3 18 -14 40 -15 30 -26 40 -45 40 -17 0 -23 4 -19 15 3 8 -6 26 -23 41
-18 17 -24 28 -15 31 6 3 12 11 12 19 0 8 3 14 6 14 10 0 48 -53 65 -91 10
-20 23 -40 30 -44 7 -5 10 -4 5 3 -3 6 -2 13 3 17 6 3 15 -4 21 -15 6 -11 8
-20 4 -20 -3 0 -1 -7 6 -15 10 -12 10 -15 -1 -15 -9 0 -10 -3 -3 -10 14 -14
44 -2 44 19 0 9 -4 33 -9 54 -9 39 3 107 19 107 4 0 11 13 15 30 9 43 28 50
20 8 -4 -19 -8 -59 -10 -89 -2 -30 -7 -71 -11 -91 -4 -24 0 -54 10 -84 8 -26
14 -50 11 -54 -4 -7 13 -121 19 -127 1 -1 24 4 50 12 57 17 67 13 98 -48 11
-22 46 -81 79 -132 32 -50 59 -103 59 -116 0 -13 23 -64 51 -114 33 -59 52
-107 56 -138 4 -32 12 -51 24 -58 13 -6 19 -21 19 -42 0 -18 4 -49 9 -69 6
-26 5 -39 -3 -43 -6 -3 7 -2 29 1 41 6 85 38 71 51 -5 4 -11 2 -13 -5 -6 -16
-33 3 -33 24 0 14 -38 106 -65 157 -8 16 -15 35 -15 44 0 8 -16 45 -35 82 -19
36 -43 93 -54 126 -11 33 -38 109 -60 168 -23 60 -41 122 -41 138 0 32 -3 32
-59 11 -9 -3 -12 -1 -7 6 4 6 22 14 41 18 32 6 40 13 33 30 -2 3 13 14 32 25
l35 18 -35 1 -35 0 29 15 c22 12 31 13 37 4 5 -9 12 -8 24 4 9 10 22 17 28 17
7 0 34 18 61 40 26 22 43 40 37 40 -6 0 -11 5 -11 11 0 5 5 7 11 4 6 -4 9 -1
8 6 -2 8 7 30 19 49 12 19 22 29 22 22 0 -7 -7 -24 -16 -37 -9 -13 -14 -32
-12 -41 2 -12 11 -2 27 29 13 25 28 45 34 44 5 -1 11 10 14 26 4 30 -8 35 -27
12 -7 -9 -15 -13 -18 -11 -2 3 10 22 28 42 27 32 31 34 25 13 l-7 -24 21 22
c11 12 21 28 21 36 0 8 9 22 20 32 12 10 19 24 16 31 -3 9 12 15 51 20 l55 7
-32 25 c-20 16 -28 27 -20 32 15 9 -152 110 -182 110 -26 0 -129 58 -142 81
-8 14 -27 37 -42 52 -17 17 -24 33 -20 43 6 15 8 15 29 -2 17 -15 19 -15 8 -2
-19 25 -4 43 19 23 10 -9 23 -14 28 -11 9 5 42 -28 42 -43 0 -5 -6 -11 -12
-14 -13 -4 34 -57 51 -57 4 0 13 -11 19 -25 6 -14 16 -25 20 -25 13 0 33 133
22 140 -5 3 -9 21 -9 40 0 41 -6 87 -19 148 -13 57 1 41 18 -21 9 -33 16 -45
23 -38 16 16 -9 87 -40 116 -15 13 -25 27 -21 30 12 12 34 -7 55 -48 19 -37
21 -55 18 -157 -1 -63 -6 -136 -10 -161 -4 -30 -3 -49 4 -53 7 -5 11 2 11 18
0 14 5 26 10 26 6 0 10 -16 10 -35 0 -25 6 -37 23 -46 12 -7 24 -15 27 -18 14
-18 85 -51 110 -51 16 0 41 -11 57 -24 15 -13 48 -33 73 -46 25 -12 52 -29 61
-37 9 -7 20 -13 25 -11 11 3 111 -27 174 -52 25 -9 58 -21 74 -24 53 -13 236
-106 299 -153 34 -25 73 -50 87 -55 14 -5 38 -25 53 -44 34 -41 80 -46 115
-13 20 17 20 22 8 35 -19 18 -30 18 -22 -1 3 -8 2 -15 -3 -15 -5 0 -14 7 -21
15 -10 12 -10 15 1 15 8 0 4 6 -8 15 -12 8 -28 12 -36 9 -9 -3 -46 13 -83 35
-37 23 -76 41 -85 41 -10 0 -25 7 -34 16 -9 9 -24 17 -33 18 -22 2 -269 123
-277 135 -8 14 -63 41 -118 58 -27 8 -68 25 -92 39 -24 13 -51 24 -59 24 -34
0 -125 42 -162 75 -21 19 -42 35 -46 35 -5 0 -8 8 -8 19 0 10 -7 24 -15 31
-13 11 -14 10 -9 -3 3 -9 -1 -23 -9 -32 -19 -18 -34 -20 -19 -2 15 18 25 107
13 107 -10 0 -15 -20 -12 -45 1 -5 -5 -2 -12 7 -8 10 -17 15 -20 11 -4 -3 -7
7 -7 23 0 22 3 26 10 14 20 -30 32 15 33 129 0 19 -5 37 -11 39 -7 2 -9 8 -6
13 3 6 -1 18 -9 27 -8 9 -23 35 -33 57 -10 22 -24 46 -31 53 -7 7 -13 20 -13
28 0 8 -6 14 -13 14 -8 0 -22 9 -32 20 -18 20 -51 28 -40 10 3 -5 -3 -10 -14
-10 -12 0 -21 3 -21 8 0 4 -15 7 -32 7 l-33 0 -9 71 c-8 65 -11 72 -38 82 -16
6 -27 16 -26 22 4 16 -62 52 -85 46 -9 -2 -15 -1 -12 4 9 15 -23 19 -36 4 -6
-8 -13 -13 -15 -11 -7 6 27 67 37 67 5 0 9 6 9 14 0 19 55 30 77 16 15 -9 13
-10 -12 -5 l-29 6 19 -21 c11 -12 29 -27 40 -32 l20 -11 -20 23 -20 23 25 -13
c35 -18 60 -41 54 -51 -2 -4 -11 -6 -19 -2 -8 3 -15 0 -15 -6 0 -10 14 -15 33
-12 4 1 22 -7 40 -16 33 -18 38 -19 60 -22 8 -1 8 -4 -3 -12 -12 -9 -13 -12
-1 -16 23 -9 43 -39 62 -94 19 -52 35 -73 51 -63 5 3 10 -2 13 -10 17 -55 15
-53 26 -33 6 10 8 23 6 30 -6 17 55 126 74 132 9 3 29 17 45 30 16 14 35 23
42 20 6 -2 12 2 12 10 0 8 19 24 43 36 23 12 56 32 72 44 55 42 216 116 273
126 31 6 77 23 102 38 57 35 73 40 140 52 141 25 174 28 182 17 5 -9 13 -9 32
1 18 10 24 21 24 43 -1 16 -5 31 -10 34 -4 3 -8 14 -8 25 0 10 -7 19 -15 19
-8 0 -15 -4 -15 -8 0 -9 -94 -62 -111 -62 -7 0 -39 -13 -73 -29 -34 -16 -88
-38 -121 -49 -33 -11 -79 -27 -102 -36 -24 -9 -63 -17 -88 -18 -25 -2 -45 -6
-45 -10 0 -5 -10 -8 -22 -8 -16 0 -19 -3 -10 -9 14 -8 -82 -59 -167 -88 -24
-8 -51 -21 -58 -29 -8 -8 -26 -17 -41 -20 -15 -3 -48 -15 -74 -26 -27 -12 -66
-21 -88 -20 -22 1 -49 -3 -59 -10 -15 -9 -23 -9 -34 0 -8 7 -21 10 -30 6 -10
-3 -22 4 -32 20 -10 14 -22 26 -29 26 -15 0 -116 90 -116 104 0 13 -60 49 -68
42 -3 -3 3 -8 12 -12 18 -7 12 -24 -10 -24 -8 0 -14 9 -14 21 0 30 -31 79 -50
79 -9 0 -21 5 -28 12 -12 12 -66 1 -120 -25 -18 -8 -25 -8 -31 2 -5 8 -17 10
-34 5 -34 -8 -34 -17 -1 -34 21 -12 27 -12 33 -1 5 8 10 -11 13 -48 5 -67 26
-101 63 -101 24 0 52 -26 41 -37 -3 -3 -15 2 -26 12 -18 16 -20 16 -20 2 0
-10 -4 -17 -10 -17 -5 0 -12 -11 -16 -24 -5 -20 -11 -24 -42 -23 -33 2 -36 -1
-43 -31 -4 -19 -12 -39 -18 -45 -6 -6 -11 -19 -11 -29 0 -11 -7 -18 -19 -18
-11 0 -22 -9 -26 -19 -3 -11 -12 -25 -21 -32 -13 -10 -13 -8 -5 15 13 32 2 34
-24 4 -27 -32 -32 -5 -5 32 17 23 18 30 7 30 -10 0 -13 7 -10 18 2 10 -3 24
-11 31 -9 8 -16 22 -16 33 0 15 3 18 13 10 6 -6 28 -13 47 -17 30 -5 40 -2 68
23 17 16 32 35 32 43 0 8 5 20 12 27 9 9 8 15 -8 28 -18 15 -17 15 14 10 41
-7 42 10 3 48 -19 18 -31 24 -36 16 -4 -7 -11 -8 -18 -1 -7 5 -25 7 -42 6 -20
-3 -33 2 -43 16 -7 10 -21 19 -30 19 -16 -1 -16 -1 1 -11 9 -5 17 -17 17 -25
0 -20 -34 -10 -61 17 -10 10 -25 19 -31 19 -10 0 -9 -3 1 -9 9 -6 10 -11 2
-15 -6 -4 -8 -12 -5 -18 4 -7 2 -8 -5 -4 -6 4 -9 12 -6 17 10 15 -15 10 -31
-6 -9 -9 -34 -15 -62 -15 -46 -1 -46 -1 -22 -15 l25 -14 -36 -1 c-34 0 -80
-23 -68 -34 3 -3 16 -7 29 -9 40 -6 36 -27 -5 -27 -20 0 -45 -5 -57 -11 -25
-13 -37 -3 -16 14 23 17 60 87 47 87 -6 0 -9 6 -6 13 2 6 15 11 28 9 14 -2 41
8 60 21 20 13 42 27 50 30 10 4 10 6 2 6 -7 1 -13 5 -13 9 0 10 116 10 126 0
13 -14 26 -9 20 7 -3 9 0 15 10 15 8 0 12 -4 9 -10 -3 -5 3 -10 13 -10 11 0
23 -7 26 -16 5 -12 8 -13 20 -2 11 11 11 15 -3 25 -14 11 -12 12 12 13 51 0
19 16 -36 18 -30 1 -74 6 -98 11 -55 13 -119 14 -119 2 0 -5 8 -12 18 -14 9
-3 3 -5 -14 -6 -17 0 -38 -8 -45 -17 -7 -9 -23 -20 -36 -25 -13 -5 -23 -16
-23 -25 0 -12 -6 -14 -32 -9 -17 4 -45 16 -61 26 -17 10 -34 16 -38 13 -5 -2
-13 5 -19 16 -6 12 -24 33 -39 48 -15 15 -32 34 -37 43 -5 9 -31 42 -59 74
-27 31 -54 65 -60 75 -12 20 -71 94 -102 127 -12 13 -20 23 -16 23 3 0 -19 23
-48 51 -64 61 -56 52 -114 114 -26 28 -58 69 -72 93 -14 23 -29 42 -33 42 -5
0 -10 10 -12 22 -3 23 -13 28 -39 21z m2828 -635 c-3 -8 -6 -5 -6 6 -1 11 2
17 5 13 3 -3 4 -12 1 -19z m-1713 -217 c40 -23 47 -45 11 -31 -26 10 -55 33
-55 44 0 10 13 6 44 -13z m-204 -21 c11 -7 3 -10 -30 -10 -33 0 -41 3 -30 10
8 5 22 10 30 10 8 0 22 -5 30 -10z m265 -48 c17 -10 13 -11 -32 -12 -51 0 -72
14 -35 23 24 6 44 3 67 -11z m-515 -22 c-6 -11 -15 -20 -21 -20 -6 0 -6 7 1
20 6 11 15 20 21 20 6 0 6 -7 -1 -20z m-69 -17 c-12 -20 -14 -14 -5 12 4 9 9
14 11 11 3 -2 0 -13 -6 -23z m586 1 c-3 -3 -12 -4 -19 -1 -8 3 -5 6 6 6 11 1
17 -2 13 -5z m-237 -13 c0 -11 -50 -24 -58 -16 -8 8 19 25 41 25 9 0 17 -4 17
-9z m95 -11 c-3 -5 -10 -10 -16 -10 -5 0 -9 5 -9 10 0 6 7 10 16 10 8 0 12 -4
9 -10z m509 2 c2 -4 -7 -9 -20 -10 -15 -1 -22 2 -19 8 7 12 32 13 39 2z
m-1154 -18 c0 -8 -5 -12 -10 -9 -6 4 -8 11 -5 16 9 14 15 11 15 -7z m1028 2
c49 -25 97 -96 66 -96 -8 0 -20 14 -26 30 -5 17 -23 37 -38 45 -27 14 -48 35
-35 35 3 0 18 -6 33 -14z m-788 -5 c0 -6 -4 -13 -10 -16 -5 -3 -10 -15 -10
-26 0 -10 -4 -19 -10 -19 -5 0 -10 8 -10 17 0 14 -4 13 -23 -5 -13 -12 -26
-19 -30 -16 -3 4 -18 -1 -33 -10 -14 -10 -28 -16 -30 -13 -9 9 37 56 50 51 7
-3 30 6 51 20 40 28 55 32 55 17z m689 -15 c15 -9 20 -16 12 -20 -8 -5 -7 -13
4 -29 16 -22 21 -77 7 -77 -4 0 -13 5 -19 11 -8 8 -10 0 -9 -31 1 -22 -2 -44
-6 -46 -16 -10 -38 18 -38 47 0 26 -3 29 -35 29 -19 0 -35 5 -35 10 0 6 16 10
35 10 37 0 44 14 25 51 -8 13 -7 25 0 39 12 23 26 25 59 6z m446 -4 c-3 -3
-11 0 -18 7 -9 10 -8 11 6 5 10 -3 15 -9 12 -12z m-1295 -1 c0 -5 -7 -11 -14
-14 -10 -4 -13 -1 -9 9 6 15 23 19 23 5z m1054 -27 c4 -10 1 -14 -6 -12 -15 5
-23 28 -10 28 5 0 13 -7 16 -16z m59 -1 c-7 -2 -19 -2 -25 0 -7 3 -2 5 12 5
14 0 19 -2 13 -5z m-1143 -33 c-5 -10 -10 -33 -10 -51 0 -19 -7 -37 -17 -45
-30 -23 -36 -15 -14 19 12 20 18 42 14 55 -6 24 13 55 28 46 5 -3 5 -13 -1
-24z m800 26 c0 -2 -7 -7 -16 -10 -8 -3 -12 -2 -9 4 6 10 25 14 25 6z m310
-36 c14 -11 19 -20 12 -20 -19 0 -52 19 -52 30 0 15 12 12 40 -10z m-133 4
c-3 -3 -12 -4 -19 -1 -8 3 -5 6 6 6 11 1 17 -2 13 -5z m123 -44 c0 -5 -7 -10
-15 -10 -8 0 -15 5 -15 10 0 6 7 10 15 10 8 0 15 -4 15 -10z m80 0 c0 -5 -4
-10 -10 -10 -5 0 -10 5 -10 10 0 6 5 10 10 10 6 0 10 -4 10 -10z m-1080 -39
c0 -6 -10 -17 -22 -26 -28 -19 -39 0 -12 20 22 17 34 19 34 6z m883 -21 c8 0
7 -4 -1 -12 -9 -9 -16 -8 -30 6 -16 18 -16 19 1 12 10 -3 24 -6 30 -6z m265
-26 c-10 -10 -28 6 -28 24 0 15 1 15 17 -1 9 -9 14 -19 11 -23z m-64 11 c3 -8
2 -15 -3 -15 -5 0 -14 7 -21 15 -10 12 -10 15 3 15 8 0 17 -7 21 -15z m103
-30 c2 -36 -10 -47 -21 -19 -5 12 8 54 17 54 1 0 3 -16 4 -35z m-1255 -16 c-4
-36 -20 -46 -31 -18 -5 15 -5 29 2 37 15 19 32 8 29 -19z m1003 22 c3 -5 1
-12 -5 -16 -5 -3 -10 1 -10 9 0 18 6 21 15 7z m261 -179 c-4 -3 -12 0 -18 6
-9 9 -9 12 0 12 7 0 13 10 13 23 2 17 3 15 6 -6 3 -16 2 -31 -1 -35z m166 -39
c8 -10 6 -13 -6 -13 -12 0 -16 9 -15 33 1 21 3 25 6 12 3 -11 10 -26 15 -32z
m-182 -14 c0 -18 -4 -28 -10 -24 -5 3 -10 20 -10 36 0 18 4 28 10 24 6 -3 10
-20 10 -36z m77 -131 c-2 -13 -4 -5 -4 17 -1 22 1 32 4 23 2 -10 2 -28 0 -40z
m-1540 -35 c-3 -10 -5 -4 -5 12 0 17 2 24 5 18 2 -7 2 -21 0 -30z m124 -9 c-9
-28 -9 -29 -10 -3 -1 14 2 29 6 32 11 12 13 2 4 -29z m-141 -28 c0 -8 -4 -18
-10 -21 -5 -3 -10 3 -10 14 0 12 5 21 10 21 6 0 10 -6 10 -14z m111 -31 c-9
-30 -9 -30 -10 10 -1 25 2 36 9 29 6 -6 6 -21 1 -39z m1349 -47 c-13 -5 -33
-17 -44 -26 -11 -9 -16 -11 -12 -4 5 8 -2 16 -18 22 -14 5 -26 11 -26 12 0 2
28 4 63 5 49 1 57 -1 37 -9z m145 -16 c25 -12 35 -21 27 -26 -7 -4 -12 -2 -12
3 0 6 -10 11 -23 11 -13 0 -27 4 -32 9 -6 5 -19 11 -30 14 -16 4 -15 5 5 6 14
0 43 -8 65 -17z m-1545 -40 c0 -7 -4 -10 -10 -7 -5 3 -10 16 -10 28 0 18 2 19
10 7 5 -8 10 -21 10 -28z m29 -7 c0 -5 -4 -3 -9 5 -5 8 -9 22 -9 30 0 16 17
-16 18 -35z m1378 23 c-3 -8 -6 -5 -6 6 -1 11 2 17 5 13 3 -3 4 -12 1 -19z
m-1237 -9 c0 -6 -4 -7 -10 -4 -5 3 -10 11 -10 16 0 6 5 7 10 4 6 -3 10 -11 10
-16z m1385 -10 c11 -17 -1 -21 -15 -4 -8 9 -8 15 -2 15 6 0 14 -5 17 -11z
m-1553 -41 c-7 -7 -12 -8 -12 -2 0 14 12 26 19 19 2 -3 -1 -11 -7 -17z m1475
-45 c-10 -32 -13 -34 -15 -15 -3 19 12 52 23 52 2 0 -2 -17 -8 -37z m119 12
c0 0 -12 -9 -26 -20 -14 -11 -19 -13 -12 -5 6 8 12 22 12 32 0 16 2 17 14 6 8
-7 13 -13 12 -13z m-1289 -41 c-3 -3 -12 -4 -19 -1 -8 3 -5 6 6 6 11 1 17 -2
13 -5z m-57 -8 c0 -2 -9 -6 -20 -9 -11 -3 -20 -1 -20 4 0 5 9 9 20 9 11 0 20
-2 20 -4z m1249 -42 c-10 -27 -12 -27 -19 -9 -12 28 -12 43 0 25 8 -12 10 -12
16 3 3 10 8 16 11 14 2 -2 -2 -17 -8 -33z m-1329 16 c0 -5 -2 -10 -4 -10 -3 0
-8 5 -11 10 -3 6 -1 10 4 10 6 0 11 -4 11 -10z m-47 -25 c10 -14 15 -25 11
-25 -11 0 -44 32 -44 42 0 15 15 8 33 -17z m1296 -29 c-12 -20 -23 -35 -26
-33 -2 3 6 21 18 41 12 20 23 35 26 33 2 -3 -6 -21 -18 -41z m44 -46 c-14 -22
-22 -27 -33 -20 -13 9 -13 10 0 10 9 0 21 15 29 33 7 18 15 26 18 19 3 -7 -4
-26 -14 -42z m-963 -5 c0 -5 -5 -3 -10 5 -5 8 -10 20 -10 25 0 6 5 3 10 -5 5
-8 10 -19 10 -25z m-380 15 c12 -8 11 -10 -7 -10 -12 0 -25 5 -28 10 -8 13 15
13 35 0z m67 -22 c-3 -8 -6 -5 -6 6 -1 11 2 17 5 13 3 -3 4 -12 1 -19z m723 6
c0 -8 -5 -12 -10 -9 -6 4 -8 11 -5 16 9 14 15 11 15 -7z m510 -68 c0 -2 -7 -9
-15 -16 -13 -11 -14 -10 -9 4 5 14 24 23 24 12z m-1270 -22 c0 -2 -7 -4 -15
-4 -8 0 -15 4 -15 10 0 5 7 7 15 4 8 -4 15 -8 15 -10z m1230 -8 c0 -11 -19
-15 -25 -6 -3 5 1 10 9 10 9 0 16 -2 16 -4z m-835 -16 c3 -5 -1 -10 -9 -10 -9
0 -16 5 -16 10 0 6 4 10 9 10 6 0 13 -4 16 -10z m780 -20 c3 -6 -1 -7 -9 -4
-18 7 -21 14 -7 14 6 0 13 -4 16 -10z m-935 -33 c13 -9 20 -17 14 -17 -16 0
-54 30 -54 43 0 8 3 9 8 1 4 -5 18 -18 32 -27z m625 -15 c-3 -3 -11 0 -18 7
-9 10 -8 11 6 5 10 -3 15 -9 12 -12z m170 -31 c-3 -6 -14 -11 -23 -11 -13 0
-13 2 4 14 21 15 30 14 19 -3z m45 9 c0 -5 -4 -10 -10 -10 -5 0 -10 5 -10 10
0 6 5 10 10 10 6 0 10 -4 10 -10z m-765 -10 c3 -5 1 -10 -4 -10 -6 0 -11 5
-11 10 0 6 2 10 4 10 3 0 8 -4 11 -10z m352 4 c-3 -3 -12 -4 -19 -1 -8 3 -5 6
6 6 11 1 17 -2 13 -5z m-414 -11 c-7 -2 -19 -2 -25 0 -7 3 -2 5 12 5 14 0 19
-2 13 -5z m460 -10 c-7 -2 -19 -2 -25 0 -7 3 -2 5 12 5 14 0 19 -2 13 -5z
m-1238 -13 c-3 -5 -11 -10 -16 -10 -6 0 -7 5 -4 10 3 6 11 10 16 10 6 0 7 -4
4 -10z m720 -28 c-8 -9 -45 11 -45 24 0 12 4 12 24 -3 13 -10 23 -20 21 -21z
m40 28 c3 -5 1 -10 -4 -10 -6 0 -11 5 -11 10 0 6 2 10 4 10 3 0 8 -4 11 -10z
m53 -10 c13 0 13 -3 4 -12 -10 -10 -15 -10 -22 2 -5 8 -9 20 -9 25 0 6 3 4 6
-2 2 -7 12 -13 21 -13z m67 10 c3 -6 -4 -10 -17 -10 -18 0 -20 2 -8 10 19 12
18 12 25 0z m212 4 c-3 -3 -12 -4 -19 -1 -8 3 -5 6 6 6 11 1 17 -2 13 -5z
m493 -4 c0 -5 -10 -10 -22 -10 -19 0 -20 2 -8 10 19 13 30 13 30 0z m-650 -38
c-7 -3 -19 3 -28 13 -16 15 -15 16 12 4 15 -7 23 -15 16 -17z m550 20 c0 -10
-50 -35 -57 -28 -3 2 8 11 24 20 34 18 33 18 33 8z m40 -16 c0 -2 -9 -6 -20
-9 -11 -3 -18 -1 -14 4 5 9 34 13 34 5z m-335 -15 c-16 -14 -102 -23 -110 -11
-4 7 2 9 19 4 16 -4 26 -2 26 5 0 6 17 11 37 11 22 0 33 -4 28 -9z m219 -25
c-21 -15 -30 -14 -19 3 3 6 14 11 23 11 13 0 13 -2 -4 -14z m-1359 -866 c3 -6
-1 -7 -9 -4 -18 7 -21 14 -7 14 6 0 13 -4 16 -10z"/>
<path d="M4110 3704 c-12 -32 -13 -44 -1 -44 5 0 11 16 13 35 5 42 1 44 -12 9z"/>
<path d="M4083 3638 c-15 -19 -25 -49 -29 -85 -4 -26 -1 -31 11 -27 16 6 45
54 45 73 0 6 -7 8 -15 5 -18 -7 -20 17 -3 34 7 7 9 12 6 12 -3 0 -10 -6 -15
-12z"/>
<path d="M4024 3522 c3 -5 -4 -37 -14 -71 -11 -35 -20 -66 -20 -71 0 -15 32
-4 46 15 17 24 18 75 2 75 -8 1 -5 7 6 15 17 13 17 15 3 29 -16 17 -32 22 -23
8z"/>
<path d="M1980 3466 c0 -8 4 -26 10 -40 7 -20 16 -26 40 -26 61 0 197 -56 308
-126 29 -19 55 -34 58 -34 21 0 156 -77 169 -96 8 -13 39 -39 69 -58 29 -18
74 -55 100 -80 26 -25 51 -46 56 -46 4 0 15 -16 24 -35 18 -38 46 -47 46 -15
0 11 5 20 10 20 6 0 10 7 10 15 0 8 6 15 13 15 6 1 -10 13 -38 27 -27 14 -63
37 -79 50 -16 13 -33 22 -40 20 -6 -2 -19 5 -30 15 -11 10 -26 18 -33 18 -7 0
-13 5 -13 11 0 5 -4 7 -10 4 -5 -3 -15 3 -22 15 -7 11 -17 20 -21 20 -5 0 -27
13 -50 29 -23 15 -73 45 -112 65 -38 20 -88 48 -110 62 -51 31 -137 74 -151
74 -6 0 -19 9 -28 19 -10 11 -26 19 -36 18 -24 -2 -110 45 -110 60 0 7 -7 13
-15 13 -8 0 -15 -6 -15 -14z"/>
<path d="M3990 3330 c0 -5 -6 -10 -14 -10 -8 0 -17 -7 -20 -16 -8 -22 -8 -23
12 -22 9 0 24 -2 32 -6 11 -5 16 2 17 29 2 26 -1 35 -12 35 -8 0 -15 -4 -15
-10z"/>
<path d="M2600 3222 c0 -27 16 -44 36 -40 11 2 38 -8 61 -24 23 -15 48 -28 55
-28 7 0 22 -7 32 -15 30 -22 42 -18 16 5 -30 26 -20 25 26 -2 21 -12 35 -17
31 -11 -9 14 -127 84 -127 75 0 -5 5 -13 12 -20 20 -20 -5 -13 -30 8 -14 11
-20 24 -16 31 4 8 3 9 -5 5 -6 -4 -22 -1 -34 6 -40 26 -57 29 -57 10z"/>
<path d="M3522 3185 c2 -13 12 -21 31 -23 15 -2 27 1 27 7 0 6 -7 8 -15 4 -9
-3 -22 2 -31 13 -14 18 -15 18 -12 -1z"/>
<path d="M3668 3193 c7 -3 16 -2 19 1 4 3 -2 6 -13 5 -11 0 -14 -3 -6 -6z"/>
<path d="M3235 3164 c-19 -16 -19 -16 5 -9 31 9 50 25 30 25 -8 0 -24 -8 -35
-16z"/>
<path d="M3348 3173 c6 -2 18 -2 25 0 6 3 1 5 -13 5 -14 0 -19 -2 -12 -5z"/>
<path d="M3440 3110 c0 -5 -12 -10 -26 -10 -14 0 -32 -7 -40 -15 -9 -8 -24
-15 -34 -15 -10 0 -22 -5 -25 -11 -5 -7 8 -9 41 -4 78 10 95 15 88 26 -3 6 2
17 12 24 18 13 18 14 2 15 -10 0 -18 -4 -18 -10z m-20 -24 c0 -3 -4 -8 -10
-11 -5 -3 -10 -1 -10 4 0 6 5 11 10 11 6 0 10 -2 10 -4z"/>
<path d="M3755 3111 c22 -4 45 -10 52 -14 6 -4 14 -3 17 2 8 13 -19 21 -67 20
l-42 -2 40 -6z"/>
<path d="M3275 3090 c-3 -6 1 -7 9 -4 18 7 21 14 7 14 -6 0 -13 -4 -16 -10z"/>
<path d="M2856 3069 c10 -11 26 -25 36 -30 13 -7 16 -5 15 11 -1 12 -7 18 -13
16 -7 -3 -18 2 -24 10 -7 8 -17 14 -23 14 -5 0 -2 -9 9 -21z"/>
<path d="M2954 3032 c4 -7 1 -12 -7 -12 -8 0 -17 -6 -20 -14 -4 -9 0 -12 13
-9 22 6 33 30 18 39 -7 4 -8 3 -4 -4z"/>
<path d="M3055 3030 c-3 -5 -1 -10 4 -10 6 0 11 5 11 10 0 6 -2 10 -4 10 -3 0
-8 -4 -11 -10z"/>
<path d="M3739 3014 c-12 -14 -11 -16 5 -13 11 2 21 10 24 17 5 17 -13 15 -29
-4z"/>
<path d="M3548 3013 c7 -3 16 -2 19 1 4 3 -2 6 -13 5 -11 0 -14 -3 -6 -6z"/>
<path d="M3525 2990 c3 -5 11 -10 16 -10 6 0 7 5 4 10 -3 6 -11 10 -16 10 -6
0 -7 -4 -4 -10z"/>
<path d="M4260 2980 c20 -13 33 -13 25 0 -3 6 -14 10 -23 10 -15 0 -15 -2 -2
-10z"/>
<path d="M5391 2970 c-45 -21 -76 -26 -67 -12 2 4 -12 6 -32 3 -33 -4 -35 -5
-12 -11 24 -6 24 -7 -10 -17 -19 -6 -57 -14 -83 -18 -26 -3 -63 -13 -82 -21
-19 -7 -42 -13 -52 -12 -10 0 -38 0 -63 -2 -42 -2 -43 -3 -15 -10 17 -4 22 -8
13 -9 -9 0 -54 -13 -99 -27 -46 -14 -90 -28 -98 -31 -14 -4 -14 -3 -1 7 13 10
12 11 -3 6 -10 -3 -23 -6 -28 -6 -6 0 -8 -4 -4 -9 3 -6 -4 -15 -16 -21 -17
-10 -20 -9 -13 2 4 7 -2 5 -13 -5 -13 -11 -33 -17 -57 -15 -20 1 -40 -2 -46
-8 -12 -12 18 -84 35 -84 6 0 38 16 71 36 105 64 261 135 316 144 69 12 130
30 145 42 15 12 189 16 218 6 32 -12 47 5 43 50 l-3 41 -44 -19z"/>
<path d="M3024 2945 c-10 -8 -14 -15 -8 -15 6 0 17 7 24 15 16 19 9 19 -16 0z"/>
<path d="M4381 2934 c13 -14 25 -20 27 -14 2 6 -4 18 -14 25 -31 24 -39 17
-13 -11z"/>
<path d="M5165 2935 c-39 -17 -23 -18 40 0 40 11 44 14 20 14 -16 0 -43 -6
-60 -14z"/>
<path d="M2975 2920 c-3 -5 -2 -10 4 -10 5 0 13 5 16 10 3 6 2 10 -4 10 -5 0
-13 -4 -16 -10z"/>
<path d="M4086 2911 c-7 -10 17 -21 42 -21 15 1 14 3 -2 15 -23 17 -33 19 -40
6z"/>
<path d="M2997 2903 c-14 -13 -6 -20 18 -15 14 2 25 8 25 13 0 10 -34 12 -43
2z"/>
<path d="M2904 2876 c-10 -8 -16 -17 -13 -20 3 -3 16 3 29 14 26 23 14 27 -16
6z"/>
<path d="M3892 2878 c-6 -6 -12 -19 -12 -27 0 -13 2 -13 16 1 9 9 15 21 13 27
-3 9 -8 8 -17 -1z"/>
<path d="M4150 2884 c0 -7 27 -34 34 -34 13 0 5 16 -14 28 -11 7 -20 10 -20 6z"/>
<path d="M2931 2804 c0 -11 3 -14 6 -6 3 7 2 16 -1 19 -3 4 -6 -2 -5 -13z"/>
<path d="M4252 2762 c-1 -47 26 -92 54 -92 14 0 23 4 19 9 -3 5 -1 12 5 16 6
4 10 -5 10 -19 0 -19 5 -26 20 -26 25 0 25 6 -3 55 -16 28 -29 40 -46 40 -13
0 -31 10 -41 22 l-17 22 -1 -27z"/>
<path d="M2870 2739 c0 -11 4 -18 10 -14 5 3 7 12 3 20 -7 21 -13 19 -13 -6z"/>
<path d="M2910 2689 c0 -5 5 -7 10 -4 6 3 10 8 10 11 0 2 -4 4 -10 4 -5 0 -10
-5 -10 -11z"/>
<path d="M2856 2665 c-9 -25 -7 -65 3 -65 14 0 25 60 13 72 -6 6 -12 3 -16 -7z"/>
<path d="M4540 2631 c0 -11 14 -34 30 -51 20 -21 30 -26 30 -15 0 8 -4 15 -9
15 -5 0 -14 14 -21 30 -16 38 -30 48 -30 21z"/>
<path d="M2901 2624 c0 -11 3 -14 6 -6 3 7 2 16 -1 19 -3 4 -6 -2 -5 -13z"/>
<path d="M4510 2609 c0 -15 7 -33 16 -40 15 -12 16 -11 9 11 -14 46 -24 58
-25 29z"/>
<path d="M2890 2563 c0 -37 14 -43 30 -14 16 31 12 50 -10 48 -16 -1 -20 -8
-20 -34z"/>
<path d="M2800 2574 c0 -8 5 -12 10 -9 6 3 10 10 10 16 0 5 -4 9 -10 9 -5 0
-10 -7 -10 -16z"/>
<path d="M2841 2559 c-11 -19 -11 -21 3 -16 13 5 14 -2 10 -43 -5 -54 -1 -62
16 -30 11 21 4 110 -9 110 -3 0 -12 -10 -20 -21z"/>
<path d="M2581 2511 c-11 -7 -9 -10 10 -14 19 -3 17 -5 -9 -6 -18 0 -43 4 -54
10 -15 8 -22 8 -28 0 -9 -16 -244 -30 -397 -25 l-121 4 3 -25 c1 -14 10 -34
20 -45 21 -23 75 -27 75 -6 0 24 40 29 293 33 231 4 250 3 287 -15 l40 -19 6
33 c7 41 -2 76 -15 55 -7 -11 -14 -11 -40 0 -17 8 -31 17 -31 21 0 11 -22 10
-39 -1z"/>
<path d="M2658 2513 c6 -2 18 -2 25 0 6 3 1 5 -13 5 -14 0 -19 -2 -12 -5z"/>
<path d="M2823 2482 c-3 -12 -9 -19 -14 -16 -5 3 -10 -12 -11 -33 -1 -21 -2
-56 -3 -79 -1 -22 -5 -53 -9 -68 -8 -32 1 -69 15 -61 5 4 9 -1 9 -10 0 -9 4
-14 10 -10 11 7 11 95 -1 95 -4 0 -10 -8 -12 -17 -3 -10 -5 -3 -6 15 0 17 4
32 10 32 7 0 8 7 4 18 -4 9 -7 22 -6 27 4 35 9 55 20 83 8 18 11 36 7 39 -4 4
-9 -3 -13 -15z"/>
<path d="M4569 2495 c-1 -5 -1 -13 0 -17 2 -13 -17 -9 -22 5 -3 6 -3 -4 0 -23
3 -21 16 -44 32 -57 34 -29 37 -13 12 52 -11 28 -21 46 -22 40z"/>
<path d="M4690 2477 c0 -5 -5 -5 -11 -1 -12 7 -31 -15 -23 -27 2 -4 18 -4 35
1 37 11 84 3 100 -16 9 -11 16 -11 40 2 35 17 37 30 7 40 -31 10 -148 11 -148
1z"/>
<path d="M2767 2446 c-4 -15 -6 -31 -2 -34 10 -10 16 6 13 35 l-3 28 -8 -29z"/>
<path d="M2840 2429 c0 -5 5 -7 10 -4 6 3 10 8 10 11 0 2 -4 4 -10 4 -5 0 -10
-5 -10 -11z"/>
<path d="M2740 2353 c1 -18 18 -35 24 -24 4 6 4 16 1 21 -7 12 -25 13 -25 3z"/>
<path d="M2709 2316 c-21 -21 -134 -56 -198 -62 -31 -4 -60 -10 -66 -14 -23
-18 -134 -48 -176 -48 -27 0 -75 -12 -115 -28 -66 -26 -146 -45 -265 -63 -30
-5 -64 -13 -75 -19 -10 -5 -59 -15 -109 -21 -169 -21 -171 -23 -100 -95 48
-50 63 -55 88 -28 61 65 86 84 136 103 90 34 200 59 257 59 35 0 64 7 86 20
72 42 414 55 455 18 11 -10 35 -18 55 -18 28 0 37 5 43 23 9 27 13 177 5 182
-4 2 -13 -2 -21 -9z m-1078 -324 c-19 -6 -41 6 -41 23 0 14 3 13 26 -2 15 -9
21 -19 15 -21z"/>
<path d="M4570 2284 c0 -8 5 -12 10 -9 6 3 10 10 10 16 0 5 -4 9 -10 9 -5 0
-10 -7 -10 -16z"/>
<path d="M4590 2201 c0 -5 5 -13 10 -16 6 -3 10 -2 10 4 0 5 -4 13 -10 16 -5
3 -10 2 -10 -4z"/>
<path d="M2762 2165 c0 -16 2 -22 5 -12 2 9 2 23 0 30 -3 6 -5 -1 -5 -18z"/>
<path d="M2787 2133 c-4 -21 -2 -42 3 -47 7 -7 10 7 10 37 0 57 -5 60 -13 10z"/>
<path d="M4654 2145 c-11 -27 4 -45 38 -45 57 0 179 -28 300 -68 131 -44 200
-81 224 -117 9 -14 24 -25 34 -25 20 0 54 45 46 63 -3 8 -5 7 -5 -2 -1 -11 -5
-11 -19 2 -18 16 -47 25 -89 26 -13 1 -32 10 -42 20 -11 11 -21 18 -23 15 -3
-2 -40 11 -84 30 -44 18 -95 37 -114 41 -19 4 -48 13 -65 20 -28 13 -106 36
-168 49 -19 5 -29 2 -33 -9z"/>
<path d="M2740 2126 c0 -8 5 -18 10 -21 6 -3 10 1 10 9 0 8 -4 18 -10 21 -5 3
-10 -1 -10 -9z"/>
<path d="M2782 2040 c0 -14 2 -19 5 -12 2 6 2 18 0 25 -3 6 -5 1 -5 -13z"/>
<path d="M4625 1990 c3 -5 8 -10 11 -10 2 0 4 5 4 10 0 6 -5 10 -11 10 -5 0
-7 -4 -4 -10z"/>
<path d="M4650 1970 c0 -5 4 -10 9 -10 5 0 16 -6 23 -13 29 -28 87 -57 93 -47
3 5 1 10 -4 10 -6 0 -11 7 -11 15 0 9 -11 20 -24 25 -13 5 -27 14 -31 19 -8
14 -55 14 -55 1z"/>
<path d="M4554 1878 c-10 -24 -19 -54 -19 -68 0 -18 -5 -25 -18 -23 -12 0 -16
-4 -13 -12 3 -8 -3 -16 -12 -18 -9 -3 4 -5 30 -6 145 -3 522 -231 721 -435 37
-38 67 -78 67 -89 0 -15 5 -18 23 -13 12 3 28 6 36 6 11 0 11 3 1 15 -7 8 -17
15 -22 15 -15 0 -137 122 -135 134 1 6 -3 10 -10 9 -6 -1 -44 29 -84 68 -41
39 -86 77 -101 85 -14 7 -36 28 -48 44 -12 17 -28 29 -34 27 -14 -6 -119 67
-110 76 4 3 -7 9 -22 13 -38 9 -91 44 -134 89 -19 19 -38 35 -42 35 -4 0 -17
9 -28 20 -14 14 -18 28 -14 45 10 41 -12 29 -32 -17z"/>
<path d="M4792 1891 c-18 -11 2 -45 34 -60 13 -5 34 -20 49 -33 14 -12 36 -23
48 -23 16 0 21 -5 19 -20 -3 -13 0 -17 6 -10 6 6 12 23 14 39 2 23 -2 33 -19
41 -13 7 -31 19 -40 27 -14 12 -88 49 -97 48 0 0 -7 -4 -14 -9z"/>
<path d="M5008 1779 c-21 -12 -38 -27 -38 -34 0 -8 -9 -20 -20 -28 -18 -12
-18 -16 -6 -26 17 -14 102 -6 124 12 14 11 45 78 39 83 -14 15 -67 11 -99 -7z
m77 -28 c-3 -6 -11 -11 -17 -11 -6 0 -6 6 2 15 14 17 26 13 15 -4z"/>
<path d="M4470 1721 c0 -6 5 -13 11 -17 7 -4 9 -21 6 -40 l-6 -34 50 0 c42 0
49 3 49 20 0 11 -6 20 -14 20 -7 0 -29 13 -47 30 -35 31 -49 37 -49 21z"/>
<path d="M3176 1573 c-9 -9 -7 -33 3 -33 12 0 22 28 12 34 -5 3 -11 3 -15 -1z"/>
<path d="M3868 1521 c-4 -15 -11 -20 -19 -15 -9 5 -10 -3 -5 -36 8 -48 13 -60
27 -60 5 0 9 16 9 35 0 21 -5 35 -12 35 -10 0 -10 2 0 9 8 4 12 19 10 32 l-3
24 -7 -24z"/>
<path d="M3310 1436 c0 -2 7 -7 16 -10 8 -3 12 -2 9 4 -6 10 -25 14 -25 6z"/>
<path d="M3288 1403 c-1 -16 -2 -45 -4 -65 -1 -20 -15 -61 -32 -90 -16 -29
-32 -75 -36 -103 -6 -47 -43 -133 -72 -166 -8 -8 -14 -23 -14 -32 0 -9 -9 -21
-20 -27 -34 -18 -25 -53 18 -72 20 -9 40 -14 45 -11 4 2 7 25 7 51 0 26 10 67
21 92 11 25 25 67 30 94 5 28 18 59 29 71 11 12 20 32 20 44 0 13 14 52 30 88
17 35 30 71 30 78 0 8 12 22 28 30 15 9 20 14 11 11 -10 -2 -33 4 -53 15 l-36
19 -2 -27z"/>
<path d="M5230 1376 c0 -2 8 -10 18 -17 15 -13 16 -12 3 4 -13 16 -21 21 -21
13z"/>
<path d="M3880 1310 c-12 -23 -11 -33 9 -150 12 -66 30 -98 50 -86 8 5 8 13 1
27 -6 11 -8 24 -5 29 10 17 -5 70 -20 70 -14 0 -31 37 -21 47 3 4 6 1 6 -6 0
-7 5 -9 10 -6 13 8 7 72 -7 86 -8 8 -15 5 -23 -11z"/>
<path d="M3928 1007 c-34 -13 -36 -33 -5 -43 12 -4 25 -11 28 -17 4 -5 15 5
24 23 14 27 15 34 3 41 -15 10 -15 10 -50 -4z m42 -17 c0 -5 -4 -10 -10 -10
-5 0 -10 5 -10 10 0 6 5 10 10 10 6 0 10 -4 10 -10z"/>
<path d="M3950 921 c0 -6 -12 -8 -30 -5 -39 8 -68 -17 -45 -39 8 -9 24 -13 36
-10 16 5 18 8 7 15 -9 7 -7 8 10 5 12 -3 22 -2 22 2 0 4 20 8 45 8 41 0 65 7
54 17 -11 10 -99 16 -99 7z"/>
</g>
</svg>
